# xmcd
#
# Track frame offsets:
#	150
#	13414
#	33781
#	57663
#	69782
#	87378
#	101403
#	114349
#	130653
#	142182
#	163217
#	184218
#	207153
#	219257
#	232218
#	249691
#	261211
#	283411
#	301160
#
# Disc length: 4250 seconds
#
# Revision: 2
# Processed by: cddbd v1.5.2PL0 Copyright (c) Steve Scherf et al.
# Submitted via: audiograbber 1.83.01
#
DISCID=1f109813
DTITLE=Various Artist - Hard Dance Awards 2011 [CD3]
DYEAR=2011
DGENRE=Dance
TTITLE0=Sidney Samson Ft. Lady Bee - Shut Up and Let It Go
TTITLE1=Public Domain Soundsystem - Automatic Audio Overload
TTITLE2=Nomad - Ignited
TTITLE3=Shaun T. - LF-Oh!
TTITLE4=Joey Riot vs Toxic - Bomb The Bass
TTITLE5=DJ Chuck-E and Vandall - Back In The Day
TTITLE6=Scott Attrill - Adapter
TTITLE7=Technikal - Ready 2 Rave
TTITLE8=Sidney Samson Ft. Wizard Sleeve - Riverside (Let's Go!)
TTITLE9=Headhunterz - Psychedelic
TTITLE10=Alex Kidd vs In2ition - Check My Sound
TTITLE11=Wragg and Log One - Mindscape
TTITLE12=BK and Anne Savage - Sweet Sensation
TTITLE13=Headhunterz and Brennan Heart - The MF Point Of Perfection
TTITLE14=Brennan Heart - One-Master-Blade
TTITLE15=Flarup and Activator - Wicked
TTITLE16=TNT - Yeah!
TTITLE17=Luca Antolini and TRX - Lost In Time
TTITLE18=The Pitcher Ft. Slim Shore - This Is Who We Are
EXTD=
EXTT0=
EXTT1=
EXTT2=
EXTT3=
EXTT4=
EXTT5=
EXTT6=
EXTT7=
EXTT8=
EXTT9=
EXTT10=
EXTT11=
EXTT12=
EXTT13=
EXTT14=
EXTT15=
EXTT16=
EXTT17=
EXTT18=
PLAYORDER=
